<svg width="546" height="80" viewBox="0 0 546 80" fill="none" xmlns="http://www.w3.org/2000/svg">
<path d="M491.515 78.369H466.878V73.241H473.456L499.876 1.33721H512.25L538.448 73.241H545.248V78.369H513.811V73.241H524.513L516.598 51.0567H488.505L480.702 73.241H491.515V78.369ZM490.177 46.0402H514.926C505.673 19.6197 503.889 14.2687 502.663 10.367C501.437 14.1573 499.542 19.6197 490.177 46.0402Z" fill="#F4F4F1"/>
<path d="M463.178 78.369H432.855V73.241H441.551V6.46523H432.855V1.33721H463.178V6.46523H454.482V73.241H463.178V78.369Z" fill="#F4F4F1"/>
<path d="M364.962 54.959H376.556V56.4082C376.556 68.3364 383.133 74.5792 395.619 74.5792C408.885 74.5792 414.347 68.8938 414.347 60.4214C414.347 52.8409 411.338 48.8277 398.183 46.2636L386.924 44.0341C373.323 41.4701 367.526 35.3387 367.526 22.2957C367.526 10.256 375.441 0 397.068 0C416.577 0 424.826 7.35759 424.826 21.7383V22.7416H413.902V21.7383C413.902 11.5938 410.111 5.01654 396.845 5.01654C383.022 5.01654 379.009 11.9282 379.009 19.2858C379.009 26.4204 382.353 30.9911 393.724 33.2206L405.318 35.4502C420.479 38.3487 426.276 43.8111 426.276 57.0771C426.276 72.6841 414.57 79.7073 395.396 79.7073C373.992 79.7073 364.962 70.9004 364.962 56.0738V54.959Z" fill="#F4F4F1"/>
<path d="M270.705 78.369H240.383V73.241H249.078V6.46523H230.294L228.288 19.8427H219.481L221.989 1.33721H289.211L291.718 19.8427H283.023L281.017 6.46523H262.01V73.241H270.705V78.369Z" fill="#F4F4F1"/>
<path d="M91.3899 78.369H66.7532V73.241H73.3304L99.7509 1.33721H112.125L138.322 73.241H145.123V78.369H113.686V73.241H124.388L116.473 51.0567H88.38L80.5765 73.241H91.3899V78.369ZM90.0522 46.0402H114.8C105.548 19.6197 103.764 14.2687 102.538 10.367C101.312 14.1573 99.4164 19.6197 90.0522 46.0402Z" fill="#F4F4F1"/>
<path d="M66.5528 52.395V52.9524C66.5528 68.3364 57.0771 79.7073 35.2273 79.7073C11.3708 79.7073 0 67.2216 0 39.6864C0 12.4856 13.6004 0 35.8961 0C56.8541 0 66.5528 10.3675 66.5528 27.7582V28.4271H54.2901V27.7582C54.2901 15.607 50.8343 5.12802 35.8961 5.12802C21.7383 5.12802 13.4889 14.7152 13.4889 39.5749C13.4889 69.2283 23.8564 74.4678 35.6732 74.4678C48.7162 74.4678 54.5131 66.5528 54.5131 53.0638V52.395H66.5528Z" fill="#F4F4F1"/>
<path d="M356.625 19.8426H347.93L345.422 6.46514H318.556V35.7843H334.705V27.2017H341.292V49.7863H334.705V40.9122H318.556V73.2408H348.822L350.829 58.6373H359.412L356.904 78.3688H296.929V73.2408H305.624V6.46514H296.929V1.33721H354.117L356.625 19.8426Z" fill="#F4F4F1"/>
<path fill-rule="evenodd" clip-rule="evenodd" d="M177.452 1.33721C183.695 1.33721 190.607 1.67169 195.289 2.45204C206.326 4.23572 211.342 11.259 211.342 22.4068C211.342 32.7742 207.106 38.9055 196.739 42.4728L213.683 73.2408H219.393V55.7846H225.981V78.3693L201.755 78.3688L184.476 44.8141C182.024 45.0371 179.459 45.1482 177.118 45.1482H170.541V73.2408H180.017V78.3688H148.914V73.2408H157.609V6.46514H148.914V1.33721H177.452ZM170.541 39.9091H178.79C184.03 39.9091 188.489 39.1287 191.276 37.4565C195.735 35.004 197.965 30.2101 197.965 22.8526C197.965 14.2687 195.066 9.92113 189.158 7.91451C186.928 7.13419 182.135 6.46516 178.456 6.46514H170.541V39.9091Z" fill="#F4F4F1"/>
</svg>
